<svg width="1920" height="960" viewBox="0 0 1920 960" fill="none" xmlns="http://www.w3.org/2000/svg">
<mask id="mask0_301_3" style="mask-type:alpha" maskUnits="userSpaceOnUse" x="0" y="0" width="1920" height="960">
<rect width="1920" height="960" fill="#5D69F6"/>
</mask>
<g mask="url(#mask0_301_3)">
<path d="M306.24 756.78C135.744 689.295 31.04 775.525 0 827.076V960H1920V805.348C1913.09 783.364 1862.08 782.981 1837.44 785.537C1783.68 594.331 1611.52 642.388 1532.16 690.318C1502.21 664.755 1453.12 663.903 1432.32 666.672C1379.33 586.918 1266.88 586.151 1217.28 595.737C1075.2 528.252 973.76 607.24 940.8 655.169C759.552 576.438 625.92 667.098 581.76 722.27C442.752 638.426 340.16 710.341 306.24 756.78Z" fill="#505EF6"/>
<path d="M306.24 834.379C135.744 766.895 31.04 853.125 0 904.676V960.274H1920V882.948C1913.09 860.964 1862.08 860.581 1837.44 863.137C1783.68 671.931 1611.52 719.988 1532.16 767.917C1502.21 742.355 1453.12 741.503 1432.32 744.272C1379.33 664.518 1266.88 663.751 1217.28 673.337C1075.2 605.852 973.76 684.84 940.8 732.769C759.552 654.037 625.92 744.698 581.76 799.87C442.752 716.026 340.16 787.941 306.24 834.379Z" fill="#9A80F7"/>
<path d="M418.637 898.198C260.495 886.074 139.253 960.794 98.3994 999.67L1920 1005.6V918.624C1915.26 909.136 1877.17 907.203 1858.72 907.423C1811.28 791.455 1643.25 794.53 1565.17 810.563C1549.35 796.331 1500.01 793.212 1477.31 793.431C1433.49 748.824 1330.91 760.213 1284.47 771.687C1166.65 719.502 1057.47 775.421 1017.6 809.904C1003.37 801.47 981.36 806.39 972.135 802.547 803.315 455.867 863.056 418.637 898.198Z" fill="#D798F9"/>
<path d="M94.6373 970.198C-63.5049 958.074 -184.747 1032.79 -225.601 1071.67L1596 1077.6V990.624C1591.26 981.136 1553.17 979.203 1534.72 979.423C1487.28 863.455 1319.25 866.53 1241.17 882.563C1225.35 868.331 1176.01 865.212 1153.31 865.431C1109.49 820.824 1006.91 832.213 960.466 843.687C842.65 791.502 733.466 847.421 693.601 881.904C679.368 873.47 657.36 878.39 648.135 881.904C519.249 828.137 407.297 883.222 367.432 917.485C238.547 875.315 131.867 935.056 94.6373 970.198Z" fill="#F2AEFA"/>
<path d="M1111.14 902.335C1016.01 807.973 880.184 863.017 824.163 902.335C681.068 888.705 633.499 935.099 627.601 960L1920 959.999V939.03C1891.7 868.783 1785.03 875.248 1735.23 887.262C1628.3 780.843 1462.01 828.942 1392.23 866.293C1253.85 820.161 1147.18 871.099 1111.14 902.335Z" fill="#F5C5FB"/>
<path d="M537.601 977.6C557.551 924.781 667.318 826.763 946.791 857.242C1296.13 895.341 1534.23 1035.61 1920 830.4" stroke="white" stroke-width="3.2" stroke-linecap="round" stroke-dasharray="0.8 10.4"/>
</g>
</svg>
