<svg version="1.1" xmlns="http://www.w3.org/2000/svg" xmlns:xlink="http://www.w3.org/1999/xlink" width="80.000000pt" height="80.000000pt" viewBox="0,0,256,256"><g fill="#ffffff" fill-rule="nonzero" stroke="none" stroke-width="1" stroke-linecap="butt" stroke-linejoin="miter" stroke-miterlimit="10" stroke-dasharray="" stroke-dashoffset="0" font-family="none" font-weight="none" font-size="none" text-anchor="none" style="mix-blend-mode: normal"><g transform="translate(312.91563,195.0855) rotate(149) scale(3.2,3.2)"><g transform="translate(0,80) scale(0.1,-0.1)"><path d="M257,672c-14,-16 -17,-44 -17,-181v-162l-37,30c-21,17 -49,31 -63,31c-26,0 -70,-25 -70,-39c0,-5 17,-28 38,-52c21,-24 50,-65 64,-90c32,-54 107,-126 142,-135c14,-3 70,-4 125,-2c98,3 101,4 133,36l33,32l3,159c3,138 1,160 -14,175c-9,9 -27,16 -39,14c-13,-2 -32,6 -44,16c-14,13 -29,17 -50,13c-20,-4 -33,-1 -42,9c-8,10 -24,14 -41,12l-28,-5v62c0,47 -4,66 -18,78c-24,22 -55,21 -75,-1zM318,658c8,-8 12,-46 12,-105c0,-51 4,-93 9,-93c5,0 11,10 13,21c8,55 68,44 68,-12c0,-34 17,-39 22,-8c7,52 68,45 68,-7c0,-30 16,-32 23,-3c4,15 12,20 29,17c23,-3 23,-5 26,-148c4,-215 -7,-230 -176,-230c-93,0 -101,2 -138,29c-21,15 -55,54 -74,86c-19,32 -52,77 -72,100c-29,32 -35,44 -26,53c24,24 59,12 108,-34l50,-47v185c0,182 4,208 35,208c6,0 16,-5 23,-12z"></path><path d="M330,430c0,-5 5,-10 10,-10c6,0 10,5 10,10c0,6 -4,10 -10,10c-5,0 -10,-4 -10,-10z"></path><path d="M420,410c0,-5 5,-10 10,-10c6,0 10,5 10,10c0,6 -4,10 -10,10c-5,0 -10,-4 -10,-10z"></path><path d="M510,400c0,-5 5,-10 10,-10c6,0 10,5 10,10c0,6 -4,10 -10,10c-5,0 -10,-4 -10,-10z"></path><path d="M330,390c0,-5 5,-10 10,-10c6,0 10,5 10,10c0,6 -4,10 -10,10c-5,0 -10,-4 -10,-10z"></path></g></g></g></svg>