<svg xmlns="http://www.w3.org/2000/svg" viewBox="0 0 80 80" height="80.000000pt" width="80.000000pt"><g transform="matrix(-1 0 0 -1 80 80)"><g transform="translate(0.000000,80.000000) scale(0.100000,-0.100000)" fill="#000000" stroke="none">
<path d="M257 672 c-14 -16 -17 -44 -17 -181 l0 -162 -37 30 c-21 17 -49 31 -63 31 -26 0 -70 -25 -70 -39 0 -5 17 -28 38 -52 21 -24 50 -65 64 -90 32 -54 107 -126 142 -135 14 -3 70 -4 125 -2 98 3 101 4 133 36 l33 32 3 159 c3 138 1 160 -14 175 -9 9 -27 16 -39 14 -13 -2 -32 6 -44 16 -14 13 -29 17 -50 13 -20 -4 -33 -1 -42 9 -8 10 -24 14 -41 12 l-28 -5 0 62 c0 47 -4 66 -18 78 -24 22 -55 21 -75 -1z m61 -14 c8 -8 12 -46 12 -105 0 -51 4 -93 9 -93 5 0 11 10 13 21 8 55 68 44 68 -12 0 -34 17 -39 22 -8 7 52 68 45 68 -7 0 -30 16 -32 23 -3 4 15 12 20 29 17 23 -3 23 -5 26 -148 4 -215 -7 -230 -176 -230 -93 0 -101 2 -138 29 -21 15 -55 54 -74 86 -19 32 -52 77 -72 100 -29 32 -35 44 -26 53 24 24 59 12 108 -34 l50 -47 0 185 c0 182 4 208 35 208 6 0 16 -5 23 -12z"/>
<path d="M330 430 c0 -5 5 -10 10 -10 6 0 10 5 10 10 0 6 -4 10 -10 10 -5 0 -10 -4 -10 -10z"/>
<path d="M420 410 c0 -5 5 -10 10 -10 6 0 10 5 10 10 0 6 -4 10 -10 10 -5 0 -10 -4 -10 -10z"/>
<path d="M510 400 c0 -5 5 -10 10 -10 6 0 10 5 10 10 0 6 -4 10 -10 10 -5 0 -10 -4 -10 -10z"/>
<path d="M330 390 c0 -5 5 -10 10 -10 6 0 10 5 10 10 0 6 -4 10 -10 10 -5 0 -10 -4 -10 -10z"/>
</g></g></svg>